# xmcd CD database file
#
# Track frame offsets:
#	187
#	22712
#	44529
#	67052
#
# Disc length: 1182 seconds
#
# Revision: 0
# Processed by: cddbd v1.5.1PL0 Copyright (c) Steve Scherf et al.
# Submitted via: CDex 1.51
#
DISCID=2d049c04
DTITLE=三重野瞳 - はじまりの冒険者たち〜光の地図〜
DYEAR=1995
DGENRE=General Pop
TTITLE0=はじまりの冒険者たち〜光の地図〜
TTITLE1=遥かな祈り
TTITLE2=はじまりの冒険者たち〜光の地図〜 (カラオケ)
TTITLE3=遥かな祈り (カラオケ)
EXTD=YEAR: 1995
EXTT0=
EXTT1=
EXTT2=
EXTT3=
PLAYORDER=
